<svg width="24" height="24" viewBox="0 0 24 24" fill="none" xmlns="http://www.w3.org/2000/svg">
<path d="M23.493 21.0697C23.8149 21.3916 23.9957 21.8282 23.9957 22.2835C23.9957 22.7387 23.8149 23.1753 23.493 23.4972C23.171 23.8191 22.7344 24 22.2792 24C21.8239 24 21.3873 23.8191 21.0654 23.4972L11.9993 14.4282L2.9303 23.4944C2.60838 23.8163 2.17178 23.9971 1.71653 23.9971C1.26128 23.9971 0.824671 23.8163 0.50276 23.4944C0.180848 23.1725 4.79685e-09 22.7359 0 22.2806C-4.79685e-09 21.8254 0.180848 21.3888 0.50276 21.0668L9.57175 12.0007L0.505615 2.93172C0.183704 2.60981 0.00285599 2.17321 0.00285599 1.71796C0.002856 1.2627 0.183704 0.826098 0.505615 0.504187C0.827526 0.182276 1.26413 0.00142773 1.71938 0.00142772C2.17463 0.00142772 2.61124 0.182276 2.93315 0.504187L11.9993 9.57318L21.0683 0.502759C21.3902 0.180848 21.8268 -7.58449e-09 22.282 0C22.7373 7.58449e-09 23.1739 0.180848 23.4958 0.502759C23.8177 0.82467 23.9986 1.26128 23.9986 1.71653C23.9986 2.17178 23.8177 2.60838 23.4958 2.9303L14.4268 12.0007L23.493 21.0697Z" fill="black"/>
</svg>
