<svg width="178" height="52" viewBox="0 0 178 52" fill="none" xmlns="http://www.w3.org/2000/svg">
<rect x="0.181641" width="177" height="52" rx="26" fill="#F6C844"/>
<path d="M24.3576 30.144C23.291 30.144 22.3683 29.9093 21.5896 29.44C20.811 28.96 20.203 28.288 19.7656 27.424C19.339 26.5493 19.1256 25.5253 19.1256 24.352C19.1256 23.4667 19.2483 22.672 19.4936 21.968C19.739 21.2533 20.0856 20.6453 20.5336 20.144C20.9923 19.632 21.5416 19.2427 22.1816 18.976C22.8323 18.7093 23.5576 18.576 24.3576 18.576C25.4243 18.576 26.347 18.8107 27.1256 19.28C27.9043 19.7493 28.507 20.416 28.9336 21.28C29.3603 22.144 29.5736 23.1627 29.5736 24.336C29.5736 25.2213 29.451 26.0213 29.2056 26.736C28.9603 27.4507 28.6083 28.064 28.1496 28.576C27.7016 29.088 27.1576 29.4773 26.5176 29.744C25.8776 30.0107 25.1576 30.144 24.3576 30.144ZM24.3576 28.832C25.1256 28.832 25.7816 28.656 26.3256 28.304C26.8696 27.952 27.2856 27.44 27.5736 26.768C27.8723 26.096 28.0216 25.2907 28.0216 24.352C28.0216 22.9333 27.7016 21.8347 27.0616 21.056C26.4323 20.2773 25.531 19.888 24.3576 19.888C23.5896 19.888 22.9283 20.064 22.3736 20.416C21.8296 20.7573 21.4136 21.264 21.1256 21.936C20.8376 22.5973 20.6936 23.4027 20.6936 24.352C20.6936 25.76 21.0136 26.8587 21.6536 27.648C22.2936 28.4373 23.195 28.832 24.3576 28.832ZM32.4134 30.112C32.1894 30.112 32.0134 30.048 31.8854 29.92C31.7574 29.792 31.6934 29.6053 31.6934 29.36V22.832C31.6934 22.5867 31.7574 22.4053 31.8854 22.288C32.0134 22.16 32.1894 22.096 32.4134 22.096C32.6374 22.096 32.8081 22.16 32.9254 22.288C33.0534 22.4053 33.1174 22.5867 33.1174 22.832V24.144L32.9414 23.904C33.1654 23.296 33.5281 22.8373 34.0294 22.528C34.5414 22.2187 35.1227 22.064 35.7734 22.064C36.4027 22.064 36.9201 22.176 37.3254 22.4C37.7307 22.624 38.0347 22.9653 38.2374 23.424C38.4401 23.8827 38.5414 24.464 38.5414 25.168V29.36C38.5414 29.6053 38.4774 29.792 38.3494 29.92C38.2321 30.048 38.0561 30.112 37.8214 30.112C37.5867 30.112 37.4054 30.048 37.2774 29.92C37.1494 29.792 37.0854 29.6053 37.0854 29.36V25.248C37.0854 24.5547 36.9521 24.048 36.6854 23.728C36.4187 23.408 35.9921 23.248 35.4054 23.248C34.7227 23.248 34.1734 23.4613 33.7574 23.888C33.3521 24.304 33.1494 24.8693 33.1494 25.584V29.36C33.1494 29.8613 32.9041 30.112 32.4134 30.112ZM44.9296 30.144C44.2256 30.144 43.623 29.968 43.1216 29.616C42.6203 29.264 42.2843 28.7893 42.1136 28.192L42.2896 27.952V29.36C42.2896 29.6053 42.2256 29.792 42.0976 29.92C41.9803 30.048 41.8043 30.112 41.5696 30.112C41.3456 30.112 41.1696 30.048 41.0416 29.92C40.9136 29.792 40.8496 29.6053 40.8496 29.36V19.344C40.8496 19.0987 40.9136 18.9173 41.0416 18.8C41.1696 18.672 41.3456 18.608 41.5696 18.608C41.8043 18.608 41.9856 18.672 42.1136 18.8C42.2416 18.9173 42.3056 19.0987 42.3056 19.344V23.968H42.1296C42.3003 23.392 42.6363 22.9333 43.1376 22.592C43.639 22.24 44.2363 22.064 44.9296 22.064C45.623 22.064 46.2256 22.2293 46.7376 22.56C47.2603 22.88 47.6603 23.344 47.9376 23.952C48.2256 24.5493 48.3696 25.264 48.3696 26.096C48.3696 26.9173 48.2256 27.6373 47.9376 28.256C47.6496 28.864 47.2496 29.3333 46.7376 29.664C46.2256 29.984 45.623 30.144 44.9296 30.144ZM44.5936 28.992C45.0523 28.992 45.4523 28.88 45.7936 28.656C46.1456 28.432 46.4176 28.1067 46.6096 27.68C46.8016 27.2533 46.8976 26.7253 46.8976 26.096C46.8976 25.1573 46.6896 24.4427 46.2736 23.952C45.8576 23.4613 45.2976 23.216 44.5936 23.216C44.1243 23.216 43.7136 23.328 43.3616 23.552C43.0203 23.7653 42.7536 24.0853 42.5616 24.512C42.3803 24.9387 42.2896 25.4667 42.2896 26.096C42.2896 27.0347 42.4976 27.7547 42.9136 28.256C43.3296 28.7467 43.8896 28.992 44.5936 28.992ZM53.5523 30.144C52.7843 30.144 52.1176 29.9787 51.5523 29.648C50.9869 29.3173 50.5496 28.848 50.2403 28.24C49.9309 27.632 49.7763 26.9173 49.7763 26.096C49.7763 25.4773 49.8616 24.9227 50.0323 24.432C50.2136 23.9307 50.4696 23.504 50.8003 23.152C51.1309 22.8 51.5256 22.5333 51.9843 22.352C52.4536 22.16 52.9763 22.064 53.5523 22.064C54.3203 22.064 54.9869 22.2293 55.5523 22.56C56.1176 22.8907 56.5549 23.36 56.8643 23.968C57.1736 24.5653 57.3283 25.2747 57.3283 26.096C57.3283 26.7147 57.2376 27.2747 57.0563 27.776C56.8856 28.2773 56.6349 28.704 56.3043 29.056C55.9736 29.408 55.5736 29.68 55.1043 29.872C54.6456 30.0533 54.1283 30.144 53.5523 30.144ZM53.5523 28.992C54.0216 28.992 54.4269 28.88 54.7683 28.656C55.1203 28.432 55.3869 28.1067 55.5683 27.68C55.7603 27.2533 55.8563 26.7253 55.8563 26.096C55.8563 25.1573 55.6483 24.4427 55.2323 23.952C54.8163 23.4613 54.2563 23.216 53.5523 23.216C53.0936 23.216 52.6883 23.328 52.3363 23.552C51.9949 23.7653 51.7283 24.0853 51.5363 24.512C51.3443 24.9387 51.2483 25.4667 51.2483 26.096C51.2483 27.0347 51.4563 27.7547 51.8723 28.256C52.2989 28.7467 52.8589 28.992 53.5523 28.992ZM61.6734 30.144C61.1401 30.144 60.6547 30.0373 60.2174 29.824C59.7907 29.6107 59.4547 29.3227 59.2094 28.96C58.9747 28.5973 58.8574 28.192 58.8574 27.744C58.8574 27.168 59.0014 26.7147 59.2894 26.384C59.5774 26.0533 60.0627 25.8187 60.7454 25.68C61.4281 25.5307 62.3454 25.456 63.4974 25.456H64.2494V26.384H63.5294C62.7081 26.384 62.0574 26.4213 61.5774 26.496C61.1081 26.5707 60.7774 26.704 60.5854 26.896C60.3934 27.0773 60.2974 27.3333 60.2974 27.664C60.2974 28.08 60.4414 28.4213 60.7294 28.688C61.0281 28.9547 61.4334 29.088 61.9454 29.088C62.3507 29.088 62.7081 28.992 63.0174 28.8C63.3267 28.5973 63.5721 28.3307 63.7534 28C63.9347 27.6587 64.0254 27.2693 64.0254 26.832V24.992C64.0254 24.3627 63.8974 23.9093 63.6414 23.632C63.3854 23.344 62.9534 23.2 62.3454 23.2C61.9934 23.2 61.6307 23.248 61.2574 23.344C60.8841 23.44 60.4947 23.5893 60.0894 23.792C59.9294 23.8667 59.7907 23.8933 59.6734 23.872C59.5561 23.84 59.4601 23.776 59.3854 23.68C59.3214 23.5733 59.2841 23.4613 59.2734 23.344C59.2734 23.216 59.3001 23.0933 59.3534 22.976C59.4174 22.8587 59.5241 22.7733 59.6734 22.72C60.1427 22.4853 60.6067 22.32 61.0654 22.224C61.5347 22.1173 61.9721 22.064 62.3774 22.064C63.0707 22.064 63.6414 22.176 64.0894 22.4C64.5374 22.6133 64.8734 22.9493 65.0974 23.408C65.3214 23.856 65.4334 24.432 65.4334 25.136V29.36C65.4334 29.6053 65.3747 29.792 65.2574 29.92C65.1401 30.048 64.9694 30.112 64.7454 30.112C64.5321 30.112 64.3614 30.048 64.2334 29.92C64.1161 29.792 64.0574 29.6053 64.0574 29.36V28.224H64.2014C64.1161 28.6187 63.9561 28.96 63.7214 29.248C63.4867 29.536 63.1934 29.76 62.8414 29.92C62.5001 30.0693 62.1107 30.144 61.6734 30.144ZM68.4766 30.112C68.2313 30.112 68.0446 30.048 67.9166 29.92C67.7886 29.792 67.7246 29.6053 67.7246 29.36V22.832C67.7246 22.5867 67.7886 22.4053 67.9166 22.288C68.0446 22.16 68.2206 22.096 68.4446 22.096C68.6686 22.096 68.8393 22.16 68.9566 22.288C69.0846 22.4053 69.1486 22.5867 69.1486 22.832V24.064H68.9886C69.1593 23.424 69.4793 22.9387 69.9486 22.608C70.418 22.2773 71.01 22.0907 71.7246 22.048C71.8953 22.0373 72.034 22.08 72.1406 22.176C72.2473 22.2613 72.306 22.4107 72.3166 22.624C72.3273 22.8267 72.2793 22.992 72.1726 23.12C72.066 23.2373 71.9006 23.3067 71.6766 23.328L71.3886 23.344C70.6846 23.4187 70.1406 23.648 69.7566 24.032C69.3833 24.416 69.1966 24.944 69.1966 25.616V29.36C69.1966 29.6053 69.1326 29.792 69.0046 29.92C68.8873 30.048 68.7113 30.112 68.4766 30.112ZM76.435 30.144C75.7523 30.144 75.1497 29.984 74.627 29.664C74.115 29.3333 73.715 28.864 73.427 28.256C73.139 27.6373 72.995 26.9173 72.995 26.096C72.995 25.264 73.1337 24.5493 73.411 23.952C73.699 23.344 74.099 22.88 74.611 22.56C75.1337 22.2293 75.7417 22.064 76.435 22.064C77.1283 22.064 77.7257 22.24 78.227 22.592C78.7283 22.9333 79.0643 23.392 79.235 23.968H79.059V19.344C79.059 19.0987 79.1177 18.9173 79.235 18.8C79.363 18.672 79.5443 18.608 79.779 18.608C80.0137 18.608 80.195 18.672 80.323 18.8C80.451 18.9173 80.515 19.0987 80.515 19.344V29.36C80.515 29.6053 80.451 29.792 80.323 29.92C80.195 30.048 80.0137 30.112 79.779 30.112C79.555 30.112 79.379 30.048 79.251 29.92C79.123 29.792 79.059 29.6053 79.059 29.36V27.904L79.235 28.192C79.075 28.7893 78.739 29.264 78.227 29.616C77.7257 29.968 77.1283 30.144 76.435 30.144ZM76.771 28.992C77.2403 28.992 77.6457 28.88 77.987 28.656C78.339 28.432 78.6057 28.1067 78.787 27.68C78.979 27.2533 79.075 26.7253 79.075 26.096C79.075 25.1573 78.867 24.4427 78.451 23.952C78.035 23.4613 77.475 23.216 76.771 23.216C76.3123 23.216 75.907 23.328 75.555 23.552C75.2137 23.7653 74.947 24.0853 74.755 24.512C74.563 24.9387 74.467 25.4667 74.467 26.096C74.467 27.0347 74.675 27.7547 75.091 28.256C75.5177 28.7467 76.0777 28.992 76.771 28.992ZM83.5696 30.08C83.3456 30.08 83.1696 30.0107 83.0416 29.872C82.9136 29.7333 82.8496 29.5413 82.8496 29.296V22.912C82.8496 22.656 82.9136 22.464 83.0416 22.336C83.1696 22.1973 83.3456 22.128 83.5696 22.128C83.8043 22.128 83.9856 22.1973 84.1136 22.336C84.2416 22.464 84.3056 22.656 84.3056 22.912V29.296C84.3056 29.5413 84.2416 29.7333 84.1136 29.872C83.9963 30.0107 83.815 30.08 83.5696 30.08ZM83.5696 20.4C83.2816 20.4 83.0523 20.3253 82.8816 20.176C82.7216 20.016 82.6416 19.808 82.6416 19.552C82.6416 19.2747 82.7216 19.0667 82.8816 18.928C83.0523 18.7787 83.2816 18.704 83.5696 18.704C83.879 18.704 84.1083 18.7787 84.2576 18.928C84.4176 19.0667 84.4976 19.2747 84.4976 19.552C84.4976 19.808 84.4176 20.016 84.2576 20.176C84.1083 20.3253 83.879 20.4 83.5696 20.4ZM87.3665 30.112C87.1425 30.112 86.9665 30.048 86.8385 29.92C86.7105 29.792 86.6465 29.6053 86.6465 29.36V22.832C86.6465 22.5867 86.7105 22.4053 86.8385 22.288C86.9665 22.16 87.1425 22.096 87.3665 22.096C87.5905 22.096 87.7612 22.16 87.8785 22.288C88.0065 22.4053 88.0705 22.5867 88.0705 22.832V24.144L87.8945 23.904C88.1185 23.296 88.4812 22.8373 88.9825 22.528C89.4945 22.2187 90.0758 22.064 90.7265 22.064C91.3558 22.064 91.8732 22.176 92.2785 22.4C92.6838 22.624 92.9878 22.9653 93.1905 23.424C93.3932 23.8827 93.4945 24.464 93.4945 25.168V29.36C93.4945 29.6053 93.4305 29.792 93.3025 29.92C93.1852 30.048 93.0092 30.112 92.7745 30.112C92.5398 30.112 92.3585 30.048 92.2305 29.92C92.1025 29.792 92.0385 29.6053 92.0385 29.36V25.248C92.0385 24.5547 91.9052 24.048 91.6385 23.728C91.3718 23.408 90.9452 23.248 90.3585 23.248C89.6758 23.248 89.1265 23.4613 88.7105 23.888C88.3052 24.304 88.1025 24.8693 88.1025 25.584V29.36C88.1025 29.8613 87.8572 30.112 87.3665 30.112ZM99.3068 33.024C98.7308 33.024 98.1708 32.96 97.6268 32.832C97.0934 32.704 96.6081 32.5067 96.1708 32.24C96.0321 32.1547 95.9361 32.0533 95.8828 31.936C95.8401 31.8293 95.8294 31.7173 95.8508 31.6C95.8828 31.4827 95.9361 31.376 96.0108 31.28C96.0961 31.1947 96.1921 31.136 96.2988 31.104C96.4161 31.0827 96.5334 31.1093 96.6508 31.184C97.1201 31.4507 97.5681 31.632 97.9948 31.728C98.4214 31.824 98.8268 31.872 99.2108 31.872C99.9681 31.872 100.533 31.6747 100.907 31.28C101.291 30.896 101.483 30.3307 101.483 29.584V27.856H101.627C101.477 28.4533 101.141 28.928 100.619 29.28C100.107 29.632 99.5094 29.808 98.8268 29.808C98.1228 29.808 97.5094 29.648 96.9868 29.328C96.4641 28.9973 96.0588 28.544 95.7708 27.968C95.4828 27.3813 95.3388 26.704 95.3388 25.936C95.3388 25.3493 95.4188 24.8213 95.5788 24.352C95.7494 23.872 95.9841 23.4667 96.2828 23.136C96.5921 22.7947 96.9601 22.5333 97.3868 22.352C97.8134 22.16 98.2934 22.064 98.8268 22.064C99.5201 22.064 100.123 22.24 100.635 22.592C101.147 22.944 101.477 23.4187 101.627 24.016L101.451 24.24V22.832C101.451 22.5867 101.515 22.4053 101.643 22.288C101.771 22.16 101.952 22.096 102.187 22.096C102.411 22.096 102.587 22.16 102.715 22.288C102.843 22.4053 102.907 22.5867 102.907 22.832V29.392C102.907 30.5973 102.597 31.504 101.979 32.112C101.371 32.72 100.48 33.024 99.3068 33.024ZM99.1468 28.656C99.6268 28.656 100.037 28.5493 100.379 28.336C100.731 28.112 100.997 27.7973 101.179 27.392C101.371 26.976 101.467 26.4907 101.467 25.936C101.467 25.0933 101.259 24.432 100.843 23.952C100.427 23.4613 99.8614 23.216 99.1468 23.216C98.6668 23.216 98.2508 23.328 97.8988 23.552C97.5574 23.7653 97.2908 24.0747 97.0988 24.48C96.9068 24.8853 96.8108 25.3707 96.8108 25.936C96.8108 26.768 97.0188 27.4293 97.4348 27.92C97.8614 28.4107 98.4321 28.656 99.1468 28.656ZM113.3 30.144C112.799 30.144 112.313 30.1013 111.844 30.016C111.375 29.9413 110.932 29.824 110.516 29.664C110.1 29.504 109.727 29.3067 109.396 29.072C109.257 28.976 109.156 28.8587 109.092 28.72C109.039 28.5813 109.023 28.448 109.044 28.32C109.076 28.1813 109.135 28.064 109.22 27.968C109.316 27.872 109.428 27.8133 109.556 27.792C109.684 27.7707 109.823 27.8133 109.972 27.92C110.463 28.2507 110.975 28.4907 111.508 28.64C112.052 28.7893 112.649 28.864 113.3 28.864C114.239 28.864 114.927 28.6933 115.364 28.352C115.812 28.0107 116.036 27.5627 116.036 27.008C116.036 26.5493 115.876 26.192 115.556 25.936C115.236 25.6693 114.697 25.4613 113.94 25.312L112.244 24.96C111.241 24.7467 110.489 24.3947 109.988 23.904C109.497 23.4133 109.252 22.7573 109.252 21.936C109.252 21.4347 109.353 20.9813 109.556 20.576C109.759 20.16 110.047 19.8027 110.42 19.504C110.793 19.2053 111.231 18.976 111.732 18.816C112.244 18.656 112.809 18.576 113.428 18.576C114.089 18.576 114.708 18.6667 115.284 18.848C115.871 19.0293 116.399 19.296 116.868 19.648C116.996 19.744 117.081 19.8613 117.124 20C117.167 20.128 117.172 20.256 117.14 20.384C117.119 20.512 117.06 20.6187 116.964 20.704C116.879 20.7893 116.767 20.8373 116.628 20.848C116.5 20.8587 116.356 20.8107 116.196 20.704C115.769 20.4053 115.332 20.192 114.884 20.064C114.436 19.9253 113.945 19.856 113.412 19.856C112.868 19.856 112.393 19.9413 111.988 20.112C111.593 20.2827 111.284 20.5227 111.06 20.832C110.847 21.1307 110.74 21.4827 110.74 21.888C110.74 22.3787 110.889 22.7627 111.188 23.04C111.487 23.3173 111.988 23.5307 112.692 23.68L114.372 24.016C115.439 24.24 116.228 24.5867 116.74 25.056C117.263 25.5147 117.524 26.1333 117.524 26.912C117.524 27.4027 117.423 27.8453 117.22 28.24C117.028 28.6347 116.751 28.976 116.388 29.264C116.025 29.5413 115.583 29.76 115.06 29.92C114.537 30.0693 113.951 30.144 113.3 30.144ZM122.087 30.144C121.457 30.144 120.929 30.0267 120.503 29.792C120.087 29.5573 119.777 29.2107 119.575 28.752C119.372 28.2933 119.271 27.7173 119.271 27.024V22.832C119.271 22.5867 119.329 22.4053 119.447 22.288C119.575 22.16 119.756 22.096 119.991 22.096C120.225 22.096 120.407 22.16 120.535 22.288C120.663 22.4053 120.727 22.5867 120.727 22.832V27.024C120.727 27.6853 120.86 28.176 121.127 28.496C121.393 28.8053 121.815 28.96 122.391 28.96C123.031 28.96 123.548 28.7467 123.943 28.32C124.348 27.8933 124.551 27.328 124.551 26.624V22.832C124.551 22.5867 124.609 22.4053 124.727 22.288C124.855 22.16 125.036 22.096 125.271 22.096C125.505 22.096 125.687 22.16 125.815 22.288C125.943 22.4053 126.007 22.5867 126.007 22.832V29.36C126.007 29.8613 125.772 30.112 125.303 30.112C125.068 30.112 124.887 30.048 124.759 29.92C124.641 29.792 124.583 29.6053 124.583 29.36V27.968L124.791 28.24C124.577 28.8587 124.231 29.3333 123.751 29.664C123.281 29.984 122.727 30.144 122.087 30.144ZM129.102 30.112C128.856 30.112 128.67 30.048 128.542 29.92C128.414 29.792 128.35 29.6053 128.35 29.36V22.832C128.35 22.5867 128.414 22.4053 128.542 22.288C128.67 22.16 128.846 22.096 129.07 22.096C129.294 22.096 129.464 22.16 129.582 22.288C129.71 22.4053 129.774 22.5867 129.774 22.832V24.064H129.614C129.784 23.424 130.104 22.9387 130.574 22.608C131.043 22.2773 131.635 22.0907 132.35 22.048C132.52 22.0373 132.659 22.08 132.766 22.176C132.872 22.2613 132.931 22.4107 132.942 22.624C132.952 22.8267 132.904 22.992 132.798 23.12C132.691 23.2373 132.526 23.3067 132.302 23.328L132.014 23.344C131.31 23.4187 130.766 23.648 130.382 24.032C130.008 24.416 129.822 24.944 129.822 25.616V29.36C129.822 29.6053 129.758 29.792 129.63 29.92C129.512 30.048 129.336 30.112 129.102 30.112ZM137.638 30.112C137.435 30.112 137.259 30.0587 137.11 29.952C136.96 29.8453 136.832 29.6747 136.726 29.44L134.006 23.104C133.931 22.9227 133.904 22.7573 133.926 22.608C133.947 22.4587 134.016 22.336 134.134 22.24C134.262 22.144 134.432 22.096 134.646 22.096C134.827 22.096 134.971 22.1387 135.078 22.224C135.184 22.3093 135.286 22.4587 135.382 22.672L137.894 28.864H137.446L140.022 22.672C140.107 22.4587 140.203 22.3093 140.31 22.224C140.427 22.1387 140.587 22.096 140.79 22.096C140.971 22.096 141.11 22.144 141.206 22.24C141.312 22.336 141.376 22.4587 141.398 22.608C141.419 22.7573 141.387 22.9173 141.302 23.088L138.566 29.44C138.47 29.6747 138.342 29.8453 138.182 29.952C138.032 30.0587 137.851 30.112 137.638 30.112ZM146.434 30.144C145.591 30.144 144.866 29.984 144.258 29.664C143.661 29.3333 143.197 28.8693 142.866 28.272C142.535 27.664 142.37 26.9493 142.37 26.128C142.37 25.3173 142.53 24.608 142.85 24C143.181 23.392 143.629 22.9173 144.194 22.576C144.77 22.2347 145.426 22.064 146.162 22.064C146.685 22.064 147.154 22.1547 147.57 22.336C147.997 22.5067 148.359 22.7573 148.658 23.088C148.957 23.4187 149.181 23.824 149.33 24.304C149.49 24.7733 149.57 25.3067 149.57 25.904C149.57 26.0747 149.517 26.208 149.41 26.304C149.314 26.3893 149.17 26.432 148.978 26.432H143.506V25.504H148.61L148.338 25.728C148.338 25.1733 148.253 24.704 148.082 24.32C147.922 23.9253 147.682 23.6267 147.362 23.424C147.053 23.2213 146.663 23.12 146.194 23.12C145.682 23.12 145.245 23.2427 144.882 23.488C144.519 23.7227 144.242 24.0587 144.05 24.496C143.858 24.9227 143.762 25.4187 143.762 25.984V26.08C143.762 27.04 143.991 27.7653 144.45 28.256C144.909 28.7467 145.57 28.992 146.434 28.992C146.775 28.992 147.122 28.9493 147.474 28.864C147.837 28.7787 148.183 28.624 148.514 28.4C148.674 28.304 148.818 28.2613 148.946 28.272C149.085 28.272 149.197 28.3147 149.282 28.4C149.367 28.4747 149.421 28.5707 149.442 28.688C149.463 28.7947 149.447 28.912 149.394 29.04C149.341 29.168 149.239 29.28 149.09 29.376C148.738 29.6213 148.317 29.8133 147.826 29.952C147.346 30.08 146.882 30.144 146.434 30.144ZM153.064 32.992C152.893 32.992 152.749 32.944 152.632 32.848C152.525 32.7627 152.461 32.64 152.44 32.48C152.429 32.3307 152.461 32.1707 152.536 32L153.624 29.536V30.144L150.6 23.104C150.525 22.9227 150.498 22.7573 150.52 22.608C150.541 22.4587 150.61 22.336 150.728 22.24C150.856 22.144 151.026 22.096 151.24 22.096C151.421 22.096 151.565 22.1387 151.672 22.224C151.778 22.3093 151.88 22.4587 151.976 22.672L154.488 28.864H154.04L156.6 22.672C156.685 22.4587 156.786 22.3093 156.904 22.224C157.021 22.1387 157.181 22.096 157.384 22.096C157.565 22.096 157.704 22.144 157.8 22.24C157.906 22.336 157.97 22.4587 157.992 22.608C158.013 22.7573 157.981 22.9173 157.896 23.088L153.864 32.416C153.757 32.64 153.645 32.7893 153.528 32.864C153.421 32.9493 153.266 32.992 153.064 32.992Z" fill="#005151"/>
</svg>
