<svg width="96" height="112" viewBox="0 0 96 112" fill="none" xmlns="http://www.w3.org/2000/svg">
<path d="M0 16C0 7.16344 7.16344 0 16 0H96V112H16C7.16345 112 0 104.837 0 96V16Z" fill="#5F9191"/>
<path d="M45.1468 40.7812C46.0449 38.0172 49.9551 38.0172 50.8532 40.7812L52.7148 46.5106C53.1164 47.7467 54.2683 48.5836 55.568 48.5836H61.5923C64.4985 48.5836 65.7068 52.3024 63.3557 54.0106L58.4819 57.5517C57.4304 58.3156 56.9904 59.6697 57.3921 60.9058L59.2537 66.6352C60.1517 69.3992 56.9883 71.6976 54.6372 69.9894L49.7634 66.4483C48.7119 65.6844 47.2881 65.6844 46.2366 66.4483L41.3629 69.9894C39.0117 71.6976 35.8483 69.3992 36.7463 66.6353L38.6079 60.9058C39.0096 59.6697 38.5696 58.3156 37.5181 57.5517L32.6443 54.0106C30.2932 52.3024 31.5015 48.5836 34.4077 48.5836H40.432C41.7317 48.5836 42.8836 47.7467 43.2852 46.5106L45.1468 40.7812Z" fill="#EAFAF8"/>
</svg>
