<svg width="118" height="52" viewBox="0 0 118 52" fill="none" xmlns="http://www.w3.org/2000/svg">
<rect width="118" height="52" rx="26" fill="#66CBBB"/>
<path d="M26.82 33.16C26.4067 33.16 26.0867 33.0467 25.86 32.82C25.6467 32.58 25.54 32.2533 25.54 31.84V20.2C25.54 19.7733 25.6533 19.4533 25.88 19.24C26.1067 19.0133 26.4267 18.9 26.84 18.9H31.66C33.2067 18.9 34.4 19.2733 35.24 20.02C36.08 20.7533 36.5 21.7867 36.5 23.12C36.5 23.9867 36.3067 24.7333 35.92 25.36C35.5467 25.9867 35 26.4667 34.28 26.8C33.56 27.1333 32.6867 27.3 31.66 27.3L31.84 27H32.5C33.0467 27 33.52 27.1333 33.92 27.4C34.3333 27.6667 34.6933 28.0867 35 28.66L36.5 31.44C36.66 31.72 36.7333 31.9933 36.72 32.26C36.7067 32.5267 36.6067 32.7467 36.42 32.92C36.2333 33.08 35.96 33.16 35.6 33.16C35.24 33.16 34.9467 33.0867 34.72 32.94C34.4933 32.78 34.2933 32.54 34.12 32.22L32.1 28.5C31.86 28.0467 31.5733 27.7467 31.24 27.6C30.92 27.44 30.5067 27.36 30 27.36H28.1V31.84C28.1 32.2533 27.9933 32.58 27.78 32.82C27.5667 33.0467 27.2467 33.16 26.82 33.16ZM28.1 25.46H31.22C32.14 25.46 32.8333 25.2733 33.3 24.9C33.78 24.5133 34.02 23.94 34.02 23.18C34.02 22.4333 33.78 21.8733 33.3 21.5C32.8333 21.1133 32.14 20.92 31.22 20.92H28.1V25.46ZM49.5406 33.2C48.954 33.2 48.3673 33.1533 47.7806 33.06C47.194 32.98 46.6406 32.8533 46.1206 32.68C45.6006 32.4933 45.134 32.2667 44.7206 32C44.4806 31.84 44.314 31.6467 44.2206 31.42C44.1273 31.1933 44.094 30.9733 44.1206 30.76C44.1606 30.5333 44.2473 30.34 44.3806 30.18C44.5273 30.0067 44.7073 29.9 44.9206 29.86C45.134 29.82 45.3673 29.88 45.6206 30.04C46.2073 30.3867 46.8273 30.64 47.4806 30.8C48.134 30.96 48.8206 31.04 49.5406 31.04C50.594 31.04 51.3606 30.8667 51.8406 30.52C52.3206 30.16 52.5606 29.7 52.5606 29.14C52.5606 28.6733 52.3873 28.3067 52.0406 28.04C51.7073 27.7733 51.1273 27.5533 50.3006 27.38L48.1006 26.92C46.834 26.6533 45.8873 26.2067 45.2606 25.58C44.6473 24.94 44.3406 24.1 44.3406 23.06C44.3406 22.4067 44.474 21.8133 44.7406 21.28C45.0073 20.7467 45.3806 20.2867 45.8606 19.9C46.354 19.5133 46.934 19.22 47.6006 19.02C48.2806 18.8067 49.0273 18.7 49.8406 18.7C50.6406 18.7 51.4006 18.8 52.1206 19C52.8406 19.2 53.4873 19.4933 54.0606 19.88C54.274 20.0267 54.414 20.2067 54.4806 20.42C54.5606 20.6333 54.5806 20.8467 54.5406 21.06C54.5006 21.26 54.4073 21.4333 54.2606 21.58C54.114 21.7267 53.9273 21.8133 53.7006 21.84C53.4873 21.8667 53.2406 21.8 52.9606 21.64C52.4673 21.36 51.9673 21.16 51.4606 21.04C50.954 20.92 50.4073 20.86 49.8206 20.86C49.2073 20.86 48.6806 20.9467 48.2406 21.12C47.8006 21.2933 47.4606 21.54 47.2206 21.86C46.994 22.1667 46.8806 22.5333 46.8806 22.96C46.8806 23.44 47.0406 23.8267 47.3606 24.12C47.6806 24.4 48.2273 24.62 49.0006 24.78L51.1806 25.24C52.5006 25.52 53.4806 25.96 54.1206 26.56C54.774 27.16 55.1006 27.96 55.1006 28.96C55.1006 29.6 54.9673 30.18 54.7006 30.7C54.4473 31.22 54.074 31.6667 53.5806 32.04C53.1006 32.4133 52.5206 32.7 51.8406 32.9C51.1606 33.1 50.394 33.2 49.5406 33.2ZM68.3275 33.16C67.9675 33.16 67.6675 33.08 67.4275 32.92C67.2008 32.7467 67.0142 32.4933 66.8675 32.16L61.6475 20.44C61.5008 20.1067 61.4608 19.8133 61.5275 19.56C61.5942 19.3067 61.7342 19.1067 61.9475 18.96C62.1608 18.8133 62.4142 18.74 62.7075 18.74C63.0942 18.74 63.3808 18.8267 63.5675 19C63.7675 19.16 63.9342 19.4067 64.0675 19.74L68.8075 30.72H67.9475L72.6675 19.72C72.8142 19.4 72.9875 19.16 73.1875 19C73.3875 18.8267 73.6675 18.74 74.0275 18.74C74.3208 18.74 74.5608 18.8133 74.7475 18.96C74.9475 19.1067 75.0742 19.3067 75.1275 19.56C75.1808 19.8133 75.1342 20.1067 74.9875 20.44L69.7675 32.16C69.6208 32.4933 69.4342 32.7467 69.2075 32.92C68.9942 33.08 68.7008 33.16 68.3275 33.16ZM83.695 33.16C83.2817 33.16 82.9617 33.0467 82.735 32.82C82.5217 32.58 82.415 32.2533 82.415 31.84V20.2C82.415 19.7733 82.5283 19.4533 82.755 19.24C82.9817 19.0133 83.3017 18.9 83.715 18.9H88.535C90.0817 18.9 91.275 19.2867 92.115 20.06C92.955 20.8333 93.375 21.9133 93.375 23.3C93.375 24.6867 92.955 25.7733 92.115 26.56C91.275 27.3333 90.0817 27.72 88.535 27.72H84.975V31.84C84.975 32.2533 84.8683 32.58 84.655 32.82C84.4417 33.0467 84.1217 33.16 83.695 33.16ZM84.975 25.7H88.135C89.0417 25.7 89.7283 25.5 90.195 25.1C90.6617 24.6867 90.895 24.0867 90.895 23.3C90.895 22.5133 90.6617 21.92 90.195 21.52C89.7283 21.12 89.0417 20.92 88.135 20.92H84.975V25.7Z" fill="#005151"/>
</svg>
