<svg width="19" height="20" viewBox="0 0 19 20" fill="none" xmlns="http://www.w3.org/2000/svg">
<path d="M14 20V17H11V15H14V12H16V15H19V17H16V20H14ZM2 18C1.45 18 0.979002 17.804 0.587002 17.412C0.195002 17.02 -0.000664969 16.5493 1.69779e-06 16V4C1.69779e-06 3.45 0.196002 2.979 0.588002 2.587C0.980002 2.195 1.45067 1.99933 2 2H3V0H5V2H11V0H13V2H14C14.55 2 15.021 2.196 15.413 2.588C15.805 2.98 16.0007 3.45067 16 4V10.1C15.6667 10.05 15.3333 10.025 15 10.025C14.6667 10.025 14.3333 10.05 14 10.1V8H2V16H9C9 16.3333 9.025 16.6667 9.075 17C9.125 17.3333 9.21667 17.6667 9.35 18H2Z" fill="#005151"/>
</svg>
