<svg width="17" height="21" viewBox="0 0 17 21" fill="none" xmlns="http://www.w3.org/2000/svg">
<path d="M8.25 0C6.06273 0.00248131 3.96575 0.872472 2.41911 2.41911C0.872472 3.96575 0.00248131 6.06273 0 8.25C0 15.3094 7.5 20.6409 7.81969 20.8641C7.94579 20.9524 8.09603 20.9998 8.25 20.9998C8.40397 20.9998 8.55421 20.9524 8.68031 20.8641C9 20.6409 16.5 15.3094 16.5 8.25C16.4975 6.06273 15.6275 3.96575 14.0809 2.41911C12.5343 0.872472 10.4373 0.00248131 8.25 0ZM8.25 5.25C8.84334 5.25 9.42336 5.42595 9.91671 5.75559C10.4101 6.08524 10.7946 6.55377 11.0216 7.10195C11.2487 7.65013 11.3081 8.25333 11.1924 8.83527C11.0766 9.41721 10.7909 9.95176 10.3713 10.3713C9.95176 10.7909 9.41721 11.0766 8.83527 11.1924C8.25333 11.3081 7.65013 11.2487 7.10195 11.0216C6.55377 10.7946 6.08524 10.4101 5.75559 9.91671C5.42595 9.42336 5.25 8.84334 5.25 8.25C5.25 7.45435 5.56607 6.69129 6.12868 6.12868C6.69129 5.56607 7.45435 5.25 8.25 5.25Z" fill="#005151"/>
</svg>
